PathFileType	4	(X/Y/Z)	s06c0401.trc
DataRate	CameraRate	NumFrames	NumMarkers	Units	OrigDataRate	OrigDataStartFrame	OrigNumFrames
200	200	6	48	mm	200	0	2000
Frame#	Time	racr			lacr			c7			jug			rlel			rdr			llel			ldr			s2			lic			ric			lasi			rasi			rpsi			lpsi			rgt			lgt			rth1			rth2			rth3			rth4			rlfc			rmfc			rsh1			rsh2			rsh3			rsh4			rlmal			rcal			rtoe			rmt5			lth1			lth2			lth4			lth3			llfc			lmfc			llmal			lcal			lmt5			lsh1			lsh2			lsh3			lsh4			ltoe			SBIKE			LBIKE			RBIKE			
		X1	Y1	Z1	X2	Y2	Z2	X3	Y3	Z3	X4	Y4	Z4	X5	Y5	Z5	X6	Y6	Z6	X7	Y7	Z7	X8	Y8	Z8	X9	Y9	Z9	X10	Y10	Z10	X11	Y11	Z11	X12	Y12	Z12	X13	Y13	Z13	X14	Y14	Z14	X15	Y15	Z15	X16	Y16	Z16	X17	Y17	Z17	X18	Y18	Z18	X19	Y19	Z19	X20	Y20	Z20	X21	Y21	Z21	X22	Y22	Z22	X23	Y23	Z23	X24	Y24	Z24	X25	Y25	Z25	X26	Y26	Z26	X27	Y27	Z27	X28	Y28	Z28	X29	Y29	Z29	X30	Y30	Z30	X31	Y31	Z31	X32	Y32	Z32	X33	Y33	Z33	X34	Y34	Z34	X35	Y35	Z35	X36	Y36	Z36	X37	Y37	Z37	X38	Y38	Z38	X39	Y39	Z39	X40	Y40	Z40	X41	Y41	Z41	X42	Y42	Z42	X43	Y43	Z43	X44	Y44	Z44	X45	Y45	Z45	X46	Y46	Z46	X47	Y47	Z47	X48	Y48	Z48	
0	0.0000	430.222694	1371.119830	-59.642098	446.506844	1371.631921	-396.213206	414.262020	1457.870160	-228.830956	457.367948	1289.406942	-216.648679	493.004417	1111.226540	15.360033	682.516581	947.252471	-43.645596	485.274138	1104.219554	-469.309195	672.120530	940.471686	-423.672710	-43.467108	1128.120469	-224.350907	144.593275	1097.647880	-390.061983	116.137823	1099.043692	-56.964106	155.625184	1032.564305	-359.688498	136.709086	1046.912310	-89.751113	-7.510053	1168.447419	-195.290873	-10.033322	1162.690689	-260.256296	76.009874	1044.402971	-25.775620	101.692383	1026.556183	-423.226538	177.297043	978.433833	-16.954527	265.971793	959.431156	-20.320833	330.548951	901.617868	-21.770137	279.018658	989.848952	-40.457561	401.538608	819.814253	-42.762541	405.942650	794.375696	-153.690496	368.144346	701.311337	-19.060996	364.224811	615.999533	-39.604661	320.636257	540.912036	-45.596634	387.387038	613.698303	-72.349055	291.606080	463.997053	-52.715966	227.252001	449.471156	-103.310659	488.369850	361.564288	-109.524842	391.647256	366.110434	-37.335226	150.764851	918.280451	-431.840218	223.267621	870.022651	-425.110710	249.952819	893.496563	-412.390216	262.145884	790.066099	-419.809326	294.996375	682.578170	-392.210842	293.581592	665.148411	-275.557429	43.621171	412.879913	-387.868675	-25.954576	439.080247	-341.890009	83.183072	272.187461	-406.400565	228.592474	600.681411	-414.795502	187.703885	525.862080	-396.959277	114.743005	476.439074	-401.835600	206.780469	512.954044	-365.342885	147.430323	217.224462	-345.759689	-205.054681	868.052511	-220.856063	-50.463210	79.709277	-420.038880	-50.131705	79.175714	-22.644432	
1	0.0050	430.587994	1370.758882	-59.664443	446.780585	1371.386411	-396.192116	414.484454	1457.615472	-228.835681	457.750736	1289.232743	-216.554465	492.517062	1110.566240	15.630112	682.329842	947.186311	-43.639550	484.972776	1103.819791	-469.473158	671.980362	940.407060	-423.713126	-43.433607	1128.160644	-224.396941	144.632616	1097.596027	-390.130393	116.102108	1099.048646	-56.957174	155.655798	1032.508056	-359.745200	136.637908	1046.880288	-89.707618	-7.432334	1168.489087	-195.369643	-9.974144	1162.713652	-260.314094	75.989813	1044.496921	-25.744390	101.708831	1026.533930	-423.277432	177.284496	978.585395	-16.953366	265.975406	959.639260	-20.358813	330.644580	901.897667	-21.845739	279.002177	990.039300	-40.530538	401.604292	820.063233	-42.879127	405.984429	794.648489	-153.794446	368.239901	701.568254	-19.100533	364.235830	616.262681	-39.661447	320.663458	541.163874	-45.643229	387.401469	613.939239	-72.399436	291.597045	464.241500	-52.742513	227.241543	449.742076	-103.326903	488.337044	361.741604	-109.526971	391.626602	366.365304	-37.336543	150.741455	918.227020	-431.884134	223.246421	869.949648	-425.158462	249.943554	893.414171	-412.437063	262.091267	789.973720	-419.830226	294.919584	682.455309	-392.251942	293.523523	665.044936	-275.571273	43.658204	412.657551	-387.887523	-25.898262	438.715711	-341.727645	83.220580	272.004873	-406.397791	228.549759	600.526115	-414.803560	187.697012	525.710790	-396.963580	114.742592	476.258600	-401.837857	206.752720	512.816296	-365.347917	147.464076	217.004328	-345.748974	-205.053587	868.036328	-220.856984	-50.454081	79.739496	-420.057539	-50.134603	79.193404	-22.658782	
2	0.0100	430.976917	1370.378213	-59.669669	447.035624	1371.070846	-396.146029	414.751235	1457.358648	-228.846417	458.045515	1288.833637	-216.560073	492.031051	1109.932787	16.017782	682.115198	947.067158	-43.605212	484.663119	1103.394902	-469.682547	671.868226	940.345942	-423.733025	-43.395951	1128.193370	-224.466887	144.701757	1097.493275	-390.162868	116.040969	1099.057493	-56.939681	155.721138	1032.462712	-359.833432	136.584359	1046.879695	-89.670399	-7.383201	1168.517721	-195.445712	-9.896032	1162.720170	-260.392291	75.967944	1044.567887	-25.752056	101.748363	1026.496538	-423.304790	177.293648	978.728459	-16.983163	265.972798	959.808743	-20.419118	330.681135	902.120664	-21.942874	278.981279	990.239471	-40.586136	401.651093	820.322561	-42.962963	406.011037	794.873970	-153.875631	368.245502	701.839554	-19.153924	364.263633	616.473791	-39.757109	320.685863	541.401761	-45.675599	387.427786	614.199199	-72.469332	291.628623	464.479730	-52.762234	227.277677	450.033903	-103.360642	488.300565	361.944910	-109.547848	391.569137	366.603533	-37.347497	150.751914	918.175675	-431.909128	223.219014	869.867130	-425.181980	249.917684	893.316611	-412.492813	262.024604	789.896378	-419.849006	294.849404	682.323020	-392.248534	293.467893	664.951585	-275.562128	43.670234	412.450629	-387.876890	-25.907694	438.499412	-341.768105	83.268002	271.795494	-406.391634	228.498687	600.383507	-414.842023	187.668465	525.579400	-396.973650	114.723602	476.099629	-401.856103	206.724359	512.678383	-365.345347	147.528675	216.768915	-345.759310	-205.062099	868.035844	-220.844738	-50.460709	79.746028	-420.048516	-50.218848	79.480815	-22.434180	
3	0.0150	431.918346	1369.761879	-59.693479	447.270287	1370.575793	-396.494824	415.050520	1457.072739	-228.824674	458.426011	1288.572646	-216.513207	491.554865	1109.362877	16.506485	681.930822	946.915282	-43.571666	484.272122	1103.009087	-470.115669	671.778528	940.285312	-423.758816	-43.453393	1128.228840	-224.637602	144.787943	1097.423770	-390.226609	115.961385	1099.103247	-56.882737	155.806491	1032.383012	-359.903321	136.524898	1046.893273	-89.549320	-7.588784	1168.423218	-195.613425	-9.748783	1162.985027	-260.466798	75.884980	1044.680138	-25.686246	101.736501	1026.427489	-423.194131	177.298399	978.888942	-16.998853	265.991711	960.043201	-20.470221	330.574092	902.188853	-21.941621	278.739477	990.337361	-41.078331	402.443525	820.296762	-42.801431	406.151253	795.133898	-153.919037	368.340344	702.136643	-19.251472	364.505001	616.711184	-39.606535	321.044758	541.522152	-45.631243	387.716360	614.527293	-72.359882	291.736816	464.618005	-52.744557	227.299883	450.318458	-103.389384	488.259301	362.043449	-109.480065	391.541024	366.784931	-37.359200	150.753701	918.135547	-431.935518	223.048800	870.078787	-425.147732	249.743858	893.462789	-412.362807	261.885816	789.707290	-419.855060	294.769996	682.224651	-392.264392	293.403881	664.841906	-275.573840	43.673314	412.250482	-387.887076	-25.920924	438.256835	-341.758562	83.026171	271.254468	-405.954757	228.423835	600.261237	-414.867236	187.481798	525.362915	-397.547018	114.729988	476.087878	-402.498349	206.113490	512.007289	-364.624697	147.592700	216.571021	-345.780286	-205.113034	867.993550	-220.974528	-50.461308	79.734272	-420.036643	-50.218193	79.466763	-22.445976	
4	0.0200	432.004821	1369.609895	-59.670358	447.553494	1370.551428	-396.513775	415.430268	1456.775174	-228.773292	458.605043	1289.026305	-216.378607	491.096052	1109.053701	17.018163	681.824920	946.975005	-43.355679	483.955940	1102.874719	-470.444034	671.747113	940.283253	-423.911147	-43.387328	1128.556980	-224.577032	144.759732	1097.545503	-390.200104	115.805801	1099.237170	-57.118306	155.905437	1032.292240	-359.981479	136.064766	1046.843215	-89.680434	-7.684505	1168.673739	-195.704936	-9.764412	1163.096908	-260.377630	75.649613	1044.981721	-25.525618	101.660830	1026.686992	-423.255079	177.123718	979.257039	-17.117821	265.950436	960.352149	-20.571977	330.388954	902.668382	-21.914348	278.795103	990.537605	-41.120974	402.338544	821.044562	-42.920036	406.080175	795.483694	-154.119951	368.268742	702.601228	-19.329817	364.447002	617.382029	-39.688681	320.797156	542.077243	-45.604004	387.666381	615.105294	-72.371928	291.526887	465.236572	-52.510214	227.327954	450.593220	-103.432529	488.300958	362.254921	-109.481486	391.337696	367.252474	-37.206905	150.629161	918.270080	-431.875290	222.976428	870.075494	-425.277672	249.671844	893.435352	-412.549297	261.766778	789.697343	-419.931860	294.528803	682.312538	-392.365378	293.066865	664.937381	-275.495382	43.534145	412.058219	-387.973057	-25.951862	438.011942	-341.852174	83.073142	271.258853	-406.278216	228.155031	600.411735	-414.963358	187.271892	525.731850	-397.531389	114.718392	475.868653	-402.349031	206.308733	512.136394	-365.001843	147.647816	216.573320	-345.990925	-205.244316	867.992105	-221.280370	-50.342431	79.763474	-420.089412	-50.337327	79.442364	-22.780299	
5	0.0250	433.282902	1368.895859	-58.526871	447.871610	1370.249700	-396.475431	415.787867	1456.503867	-228.767889	458.948573	1288.872981	-216.296129	490.805819	1108.488606	17.370178	681.751925	946.858884	-43.323288	483.745785	1102.541916	-470.720012	671.682048	940.258771	-423.959136	-43.295537	1128.708066	-224.627886	144.844859	1097.485502	-390.277336	115.680784	1099.272750	-57.148190	155.969317	1032.168338	-359.993299	135.870199	1046.812915	-89.647539	-7.598063	1168.744697	-195.819919	-9.683161	1163.147194	-260.390155	75.517711	1045.157676	-25.508794	101.720059	1026.693312	-423.305092	177.132023	979.458310	-17.232487	265.946219	960.574004	-20.685244	330.375056	902.899185	-22.006273	278.806198	990.715821	-41.180808	402.371826	821.395186	-42.981430	406.076277	795.799872	-154.230855	368.290942	702.913763	-19.415210	364.448434	617.688595	-39.778726	320.777788	542.377450	-45.636031	387.683075	615.349032	-72.452325	291.551891	465.532391	-52.541585	227.326274	450.879685	-103.447647	488.266327	362.442829	-109.450809	391.277009	367.513071	-37.191409	150.630945	918.241416	-431.902651	223.006526	869.868107	-425.323993	249.720149	893.204354	-412.582871	261.779468	789.666518	-420.003038	294.394345	682.217754	-392.412341	292.902326	664.837571	-275.485288	43.478632	411.832750	-388.011990	-26.022231	437.741521	-341.882254	83.118112	271.085846	-406.367189	228.026303	600.299991	-415.039254	187.192519	525.621371	-397.585180	114.653043	475.740194	-402.382640	206.304401	512.018050	-365.102113	147.718147	216.479955	-346.082252	-205.246528	867.995727	-221.260592	-50.339266	79.741376	-420.120845	-50.348058	79.459156	-22.812829	
